<svg width="333" height="303" xmlns="http://www.w3.org/2000/svg">
 <g>
  <title>star</title>
  <path id="svg_6" d="m-0.00001,115.73601l127.19559,0l39.30441,-115.73601l39.30444,115.73601l127.19556,0l-102.9032,71.52797l39.30645,115.73601l-102.90325,-71.52992l-102.90322,71.52992l39.30646,-115.73601l-102.90324,-71.52797z" stroke="#000" fill="#333333"/>
  <path id="svg_7" d="m72,141.37208l73.338,0l22.66201,-68.3721l22.66202,68.3721l73.33798,0l-59.33158,42.2558l22.66318,68.3721l-59.3316,-42.25695l-59.33159,42.25695l22.66318,-68.3721l-59.3316,-42.2558z" stroke="#000" fill="#666666"/>
  <path id="svg_11" d="m104.00001,149.69013l47.36412,0l14.63588,-44.69014l14.63589,44.69014l47.36411,0l-38.31831,27.61971l14.63664,44.69014l-38.31833,-27.62046l-38.31832,27.62046l14.63664,-44.69014l-38.31832,-27.61971z" stroke="#000" fill="#7f7f7f"/>
 </g>

</svg>